#!OML:ASF Y:\EmotionMaleHayes\Project 1\Capture day 1\Session 1\Male1.ASF
:FULLY-SPECIFIED
:DEGREES
2504
root 4.59835 16.546 15.7106 166.913 249.026 -159.858
lowerback 15.4735 -0.00464459 -15.6481
upperback 6.90624 -2.83494 -5.89137
thorax -0.747751 -1.8392 2.89029
lowerneck -18.8296 -0.0363858 -2.72057
upperneck 29.373 -0.340598 2.38736
head 12.9632 -0.286555 1.30083
rclavicle -1.90833e-014 1.25632e-013
rhumerus -46.8719 -4.23621 -75.3015
rradius 42.3984
rwrist -2.70195
rhand -13.8883 -29.98
rfingers 7.12502
rthumb 12.2369 -59.6021
lclavicle -1.90833e-014 1.25632e-013
lhumerus 16.3583 -20.0198 56.4977
lradius 57.2615
lwrist 4.73631
lhand -27.4069 -28.4846
lfingers 7.12502
lthumb -0.813092 1.49363
rfemur -32.3982 -10.5825 12.2158
rtibia 28.8335
rfoot -9.71468 -11.3457
rtoes 20.2649
lfemur 21.4025 2.33162 -17.4795
ltibia 2.3865
lfoot -20.7205 22.3941
ltoes -17.8134
2505
root 4.48406 16.5686 15.6914 167.645 248.815 -160.304
lowerback 15.6286 -0.0822993 -15.4389
upperback 6.91948 -2.9222 -5.7323
thorax -0.807152 -1.87339 2.96699
lowerneck -19.0672 0.0302186 -2.68568
upperneck 29.689 -0.297546 2.48882
head 13.1429 -0.253812 1.34596
rclavicle -5.56597e-015 -5.08889e-014
rhumerus -46.5823 -4.76665 -75.5134
rradius 42.2953
rwrist -3.6807
rhand -14.2123 -30.5937
rfingers 7.12502
rthumb 11.9244 -60.2341
lclavicle -5.56597e-015 -5.08889e-014
lhumerus 15.732 -20.0577 57.3603
lradius 58.1493
lwrist 4.89224
lhand -28.3176 -28.4641
lfingers 7.12502
lthumb -1.69261 1.50893
rfemur -32.1684 -10.1571 12.4075
rtibia 28.6979
rfoot -10.1531 -11.8248
rtoes 19.6007
lfemur 21.1228 2.44895 -16.8939
ltibia 2.70145
lfoot -19.7735 22.4159
ltoes -18.8794
2506
root 4.36591 16.5919 15.6745 168.558 248.421 -160.905
lowerback 15.7619 -0.271574 -15.2071
upperback 6.91636 -3.14238 -5.53818
thorax -0.850578 -1.97165 3.08784
lowerneck -19.5482 0.231839 -2.52738
upperneck 30.2817 -0.095912 2.54991
head 13.4875 -0.147228 1.3862
rclavicle -2.62396e-014 -1.90833e-014
rhumerus -46.3549 -4.81387 -75.9008
rradius 42.3602
rwrist -4.7635
rhand -14.662 -30.9801
rfingers 7.12502
rthumb 11.4907 -60.6451
lclavicle -2.62396e-014 -1.90833e-014
lhumerus 14.9437 -20.1628 58.1525
lradius 58.9068
lwrist 4.67305
lhand -29.4256 -28.0805
lfingers 7.12502
lthumb -2.76272 1.88138
rfemur -31.9941 -10.2026 12.6404
rtibia 28.6989
rfoot -10.6054 -12.0377
rtoes 19.0316
lfemur 20.7591 2.56644 -16.2564
ltibia 3.16562
lfoot -19.1213 22.0648
ltoes -17.9727
2507
root 4.24975 16.6173 15.668 169.212 247.855 -161.285
lowerback 16.0359 -0.503112 -14.9487
upperback 6.9314 -3.44126 -5.36426
thorax -0.939939 -2.10652 3.18978
lowerneck -19.0318 0.0133769 -2.92692
upperneck 29.8665 -0.485443 3.17581
head 13.2169 -0.274695 1.62688
rclavicle 2.3059e-014 1.27222e-014
rhumerus -46.1726 -4.72312 -76.341
rradius 42.6779
rwrist -5.80687
rhand -14.693 -31.5395
rfingers 7.12502
rthumb 11.4608 -61.2062
lclavicle 2.3059e-014 1.27222e-014
lhumerus 14.1785 -20.1412 58.9756
lradius 59.5443
lwrist 5.22283
lhand -29.5483 -28.6754
lfingers 7.12502
lthumb -2.88123 1.28489
rfemur -31.8363 -10.8971 12.7765
rtibia 28.889
rfoot -11.076 -11.8588
rtoes 18.8836
lfemur 20.4148 2.60023 -15.8715
ltibia 3.65756
lfoot -18.6198 21.6661
ltoes -15.5443
2508
root 4.13227 16.6447 15.6563 169.843 247.42 -161.691
lowerback 16.3316 -0.635996 -14.6908
upperback 6.96861 -3.614 -5.18233
thorax -1.03632 -2.18134 3.28355
lowerneck -19.6467 -0.00528223 -2.4559
upperneck 30.5237 -0.499905 2.60941
head 13.626 -0.308682 1.33192
rclavicle -5.1684e-014 5.725e-014
rhumerus -46.0439 -4.5847 -76.8299
rradius 43.0934
rwrist -6.52464
rhand -14.5225 -32.1758
rfingers 7.12502
rthumb 11.6252 -61.8334
lclavicle -5.1684e-014 5.725e-014
lhumerus 13.4478 -20.1032 59.8201
lradius 60.2773
lwrist 6.31235
lhand -28.9063 -29.6817
lfingers 7.12502
lthumb -2.26119 0.286035
rfemur -31.5709 -11.1108 12.9229
rtibia 28.9433
rfoot -11.6317 -11.9746
rtoes 18.6435
lfemur 20.1505 2.44591 -15.4727
ltibia 4.07957
lfoot -18.6169 21.2752
ltoes -10.9607
2509
root 4.0133 16.6718 15.646 170.007 246.985 -161.46
lowerback 16.309 -0.742077 -14.6327
upperback 7.0491 -3.72021 -5.07367
thorax -0.915304 -2.24329 3.37922
lowerneck -19.0425 -0.0839172 -2.82483
upperneck 29.7619 -0.7267 3.39125
head 13.1858 -0.335374 1.65249
rclavicle -3.10104e-014 -3.97569e-014
rhumerus -45.9264 -4.42424 -77.2692
rradius 43.5826
rwrist -7.0414
rhand -14.4883 -32.2038
rfingers 7.12502
rthumb 11.6583 -61.8595
lclavicle -3.10104e-014 -3.97569e-014
lhumerus 12.7417 -20.3795 60.4994
lradius 61.1447
lwrist 7.08983
lhand -28.8413 -29.6665
lfingers 7.12502
lthumb -2.19841 0.301874
rfemur -31.3483 -11.2006 12.7655
rtibia 28.8108
rfoot -12.0781 -12.1609
rtoes 18.0695
lfemur 19.7441 2.25224 -15.4001
ltibia 4.58144
lfoot -18.9085 20.6343
ltoes -5.46798
2510
root 3.90088 16.7002 15.6478 170.251 246.44 -161.247
lowerback 16.2385 -0.892081 -14.3581
upperback 7.10268 -3.84556 -5.01454
thorax -0.81782 -2.30591 3.30735
lowerneck -17.4255 -0.160867 -3.24253
upperneck 28.3941 -0.98191 4.31249
head 12.3043 -0.373433 2.00609
rclavicle 8.74653e-015 3.65764e-014
rhumerus -45.8424 -4.07053 -77.7766
rradius 44.0943
rwrist -7.57399
rhand -14.2221 -32.1658
rfingers 7.12502
rthumb 11.9149 -61.8067
lclavicle 8.74653e-015 3.65764e-014
lhumerus 12.0345 -21.0716 61.0545
lradius 61.8287
lwrist 7.55182
lhand -29.2401 -29.4223
lfingers 7.12502
lthumb -2.58361 0.541822
rfemur -31.143 -11.8004 12.617
rtibia 28.6157
rfoot -12.359 -11.9834
rtoes 17.5261
lfemur 19.229 2.3233 -15.3327
ltibia 4.81308
lfoot -17.1704 20.8868
ltoes -7.07331
2511
root 3.78119 16.7284 15.6411 170.649 246.034 -161.189
lowerback 16.1199 -0.958802 -14.1698
upperback 7.13902 -3.86512 -4.8881
thorax -0.717917 -2.31801 3.33605
lowerneck -17.4255 -0.160867 -3.24253
upperneck 28.3941 -0.98191 4.31249
head 12.3043 -0.373433 2.00609
rclavicle 9.06458e-014 1.90833e-014
rhumerus -45.8595 -3.46167 -78.3775
rradius 44.8297
rwrist -7.76219
rhand -13.4314 -32.5801
rfingers 7.12502
rthumb 12.6773 -62.1753
lclavicle 9.06458e-014 1.90833e-014
lhumerus 11.3929 -21.7497 61.6803
lradius 62.1236
lwrist 7.68476
lhand -29.469 -29.9823
lfingers 7.12502
lthumb -2.80462 -0.02096
rfemur -31.0274 -12.0612 12.5855
rtibia 28.4954
rfoot -12.7641 -11.9916
rtoes 17.0106
lfemur 18.7104 2.37838 -15.0826
ltibia 5.19828
lfoot -15.8353 20.6749
ltoes -5.9943
2512
root 3.66607 16.755 15.6416 170.922 245.618 -160.995
lowerback 15.9903 -1.05141 -13.956
upperback 7.1866 -3.9133 -4.7689
thorax -0.598427 -2.34532 3.34586
lowerneck -17.4255 -0.160867 -3.24253
upperneck 28.3941 -0.98191 4.31249
head 12.3043 -0.373433 2.00609
rclavicle 2.38542e-014 -2.06736e-014
rhumerus -45.9764 -2.88317 -78.827
rradius 45.9152
rwrist -7.63894
rhand -12.1185 -32.8874
rfingers 7.12502
rthumb 13.9428 -62.3999
lclavicle 2.38542e-014 -2.06736e-014
lhumerus 11.3258 -22.9953 61.7426
lradius 61.846
lwrist 8.29124
lhand -29.7107 -30.8752
lfingers 7.12502
lthumb -3.03806 -0.917141
rfemur -31.1282 -12.6392 12.5115
rtibia 28.7451
rfoot -13.3311 -11.679
rtoes 16.8555
lfemur 18.1708 2.41995 -14.9718
ltibia 5.56273
lfoot -14.4467 20.7076
ltoes -3.96628
2513
root 3.55633 16.7813 15.6419 171.679 245.344 -161.322
lowerback 15.904 -1.1423 -13.5156
upperback 7.17722 -3.93404 -4.56442
thorax -0.581805 -2.34489 3.32539
lowerneck -19.9356 -0.658645 -2.30597
upperneck 30.6507 -1.71304 3.23103
head 13.7912 -0.72039 1.34759
rclavicle -2.8625e-014 -3.65764e-014
rhumerus -46.0304 -2.12767 -79.2343
rradius 46.8433
rwrist -7.49974
rhand -11.2124 -32.6097
rfingers 7.12502
rthumb 14.8158 -62.0601
lclavicle -2.8625e-014 -3.65764e-014
lhumerus 10.0975 -23.5138 62.7031
lradius 62.4927
lwrist 7.97516
lhand -29.2748 -31.0716
lfingers 7.12502
lthumb -2.61708 -1.10794
rfemur -31.2524 -12.9942 12.7361
rtibia 28.9263
rfoot -13.8505 -11.4636
rtoes 16.2804
lfemur 17.6367 2.47897 -14.5569
ltibia 5.90154
lfoot -13.5113 20.7927
ltoes -1.1316
2514
root 3.44434 16.8076 15.6403 172.838 245.141 -162.161
lowerback 15.7845 -1.22696 -12.9569
upperback 7.24477 -3.91414 -4.25308
thorax -0.471953 -2.33221 3.34255
lowerneck -19.2102 -0.671037 -2.82832
upperneck 29.6374 -1.81258 4.15839
head 13.2241 -0.694684 1.77306
rclavicle 1.59028e-014 4.77083e-014
rhumerus -45.9865 -1.15786 -79.6457
rradius 47.7346
rwrist -7.04495
rhand -10.8808 -31.9484
rfingers 7.12502
rthumb 15.1353 -61.3749
lclavicle 1.59028e-014 4.77083e-014
lhumerus 9.04255 -23.9423 63.672
lradius 62.9397
lwrist 7.62245
lhand -29.1334 -30.7085
lfingers 7.12502
lthumb -2.48051 -0.743174
rfemur -31.1048 -13.0173 13.2116
rtibia 28.7434
rfoot -14.2047 -11.5397
rtoes 14.94
lfemur 17.1676 2.22925 -13.9534
ltibia 6.50738
lfoot -13.9639 20.204
ltoes 3.88755
2515
root 3.33387 16.8325 15.6359 173.403 244.879 -162.402
lowerback 15.8664 -1.2777 -12.5494
upperback 7.20003 -3.92551 -4.09243
thorax -0.585134 -2.31926 3.30079
lowerneck -19.3116 -0.804918 -2.98872
upperneck 29.6733 -2.07207 4.52447
head 13.2796 -0.774328 1.90229
rclavicle -6.59965e-014 -9.54166e-015
rhumerus -46.2579 -0.259381 -80.0973
rradius 48.8456
rwrist -6.60241
rhand -10.4536 -31.2065
rfingers 7.12502
rthumb 15.5468 -60.6015
lclavicle -6.59965e-014 -9.54166e-015
lhumerus 8.14718 -24.8888 64.2026
lradius 63.0324
lwrist 7.43016
lhand -29.1756 -30.6344
lfingers 7.12502
lthumb -2.52134 -0.669598
rfemur -30.7431 -13.0663 13.3789
rtibia 28.287
rfoot -14.4502 -11.6589
rtoes 14.3411
lfemur 16.5813 2.16818 -13.613
ltibia 6.82605
lfoot -11.2037 21.2853
ltoes -2.06839
2516
root 3.23121 16.8588 15.6269 173.665 244.716 -162.3
lowerback 15.9266 -1.2992 -12.3704
upperback 7.14538 -3.93029 -3.94476
thorax -0.679335 -2.30963 3.36669
lowerneck -19.6053 -0.945711 -2.8931
upperneck 30.0678 -2.28695 4.39438
head 13.5172 -0.872695 1.80528
rclavicle -1.51076e-014 -4.77083e-015
rhumerus -46.3725 0.804321 -80.5911
rradius 49.8763
rwrist -6.29617
rhand -9.6644 -30.6668
rfingers 7.12502
rthumb 16.3068 -60.0012
lclavicle -1.51076e-014 -4.77083e-015
lhumerus 7.01352 -25.7151 64.7385
lradius 63.2276
lwrist 7.05415
lhand -28.9845 -30.794
lfingers 7.12502
lthumb -2.33674 -0.827038
rfemur -30.381 -12.8592 13.4114
rtibia 27.6957
rfoot -14.5826 -11.9468
rtoes 13.8468
lfemur 16.0159 2.01054 -13.417
ltibia 7.56254
lfoot -10.8057 21.255
ltoes 4.36517
2517
root 3.12596 16.8863 15.6192 173.891 244.602 -162.266
lowerback 16.0855 -1.28221 -12.2185
upperback 7.07809 -3.90397 -3.75808
thorax -0.838612 -2.28203 3.49002
lowerneck -19.5204 -1.00749 -2.67736
upperneck 30.0174 -2.37189 4.15889
head 13.4756 -0.91663 1.65924
rclavicle -1.74931e-014 5.64548e-014
rhumerus -46.5077 1.92306 -81.0153
rradius 50.9262
rwrist -5.62562
rhand -8.36299 -30.2542
rfingers 7.12502
rthumb 17.5595 -59.4812
lclavicle -1.74931e-014 5.64548e-014
lhumerus 5.81395 -26.5661 65.4218
lradius 63.2512
lwrist 6.74551
lhand -28.6242 -30.8333
lfingers 7.12502
lthumb -1.98875 -0.862819
rfemur -30.0126 -12.5249 13.4569
rtibia 27.2557
rfoot -14.8377 -12.2458
rtoes 14.0416
lfemur 15.6049 2.03984 -13.1022
ltibia 7.915
lfoot -8.88447 21.5968
ltoes 2.63852
2518
root 3.01424 16.9116 15.6186 173.76 244.429 -161.959
lowerback 16.179 -1.24804 -12.0921
upperback 7.15836 -3.84509 -3.65639
thorax -0.812705 -2.25667 3.52234
lowerneck -19.6897 -1.13503 -2.73516
upperneck 29.9707 -2.62061 4.43921
head 13.5097 -0.98814 1.73747
rclavicle -6.91771e-014 1.51076e-014
rhumerus -46.4303 2.93774 -81.4245
rradius 51.9186
rwrist -4.90738
rhand -7.1855 -29.8221
rfingers 7.12502
rthumb 18.6924 -58.944
lclavicle -6.91771e-014 1.51076e-014
lhumerus 4.94919 -27.5618 65.9317
lradius 63.0191
lwrist 6.46452
lhand -28.2615 -30.6327
lfingers 7.12502
lthumb -1.63847 -0.659205
rfemur -29.5245 -12.5852 13.3595
rtibia 26.8888
rfoot -15.0852 -12.2018
rtoes 14.5704
lfemur 15.3704 1.90986 -13.0625
ltibia 8.53472
lfoot -9.41458 21.1522
ltoes 4.67149
